<svg width="545" height="545" viewBox="0 0 545 545" fill="none" xmlns="http://www.w3.org/2000/svg">
<path d="M456.447 477.396C467.861 480.397 476.89 470.758 479.865 460.67C482.814 450.671 481.86 439.569 481.861 429.27C481.862 407.767 481.863 386.263 481.864 364.759C481.864 363.879 482.327 363.303 482.937 363.017V86.7999C482.937 73.3131 471.423 62.3782 457.224 62.3782H410.409C413.107 62.3782 415.695 62.833 418.121 63.6408C418.4 62.9445 419.078 62.447 420.001 62.7603C424.534 64.3001 427.776 66.8758 430.106 70.0988H439.117C452.394 70.0988 463.163 80.8681 463.163 94.1567V451.165C463.163 464.443 452.394 475.212 439.117 475.212H427.661C424.856 477.42 421.628 478.944 418.203 480.005H454.005C453.643 478.675 454.696 476.936 456.447 477.396Z" fill="#DA498D"/>
<path d="M436.802 172.37C436.815 173.583 435.755 174.103 434.831 173.939V271.084C440.924 284.578 447.214 297.984 453.742 311.269L453.7 280.25C453.698 278.114 457.012 278.118 457.014 280.25C457.031 292.84 457.048 305.43 457.064 318.02C459.073 322.041 461.105 326.052 463.163 330.049V94.1565C463.163 80.8682 452.394 70.0986 439.117 70.0986H430.106C436.755 79.292 435.93 93.7884 436.053 104.823C436.302 127.339 436.552 149.855 436.802 172.37Z" fill="#E0E8F7"/>
<path d="M457.188 410.384C457.191 412.52 453.877 412.517 453.874 410.384C453.83 377.346 453.786 344.307 453.742 311.269C447.215 297.984 440.925 284.578 434.831 271.084V330.358C435.388 330.57 435.832 331.06 435.842 331.832L437.15 436.604C437.296 448.273 439.118 462.888 430.67 472.385C429.737 473.435 428.729 474.371 427.661 475.211H439.117C452.394 475.211 463.163 464.443 463.163 451.165V330.049C461.106 326.052 459.073 322.041 457.064 318.02C457.106 348.808 457.147 379.596 457.188 410.384Z" fill="#B5C5E7"/>
<path d="M399.912 479.133C412.652 478.775 427.946 476.642 432.371 462.539C434.341 456.26 433.993 449.412 433.915 442.916C433.83 435.763 433.736 428.61 433.648 421.457C433.274 391.582 432.901 361.707 432.528 331.832C432.511 330.47 433.85 329.982 434.831 330.358V173.939C434.126 173.815 433.5 173.292 433.489 172.37C433.287 154.103 433.083 135.835 432.881 117.568C432.784 108.785 432.89 99.9714 432.554 91.1941C432.171 81.1956 429.832 69.5939 419.12 65.9559C418.027 65.5842 417.79 64.4711 418.121 63.6408C415.695 62.833 413.107 62.3782 410.41 62.3782H124.413C110.927 62.3782 99.9912 73.3134 99.9912 86.7999V97.9342C110.253 99.3367 119.553 105.092 126.037 113.552C130.367 119.197 120.768 124.687 116.505 119.12C112.241 113.564 106.266 110.327 99.9915 109.289V187.095C111.534 187.614 122.149 193.667 129.307 203.012C133.637 208.656 124.038 214.157 119.775 208.59C114.782 202.062 107.414 198.737 99.9915 198.406V276.554C111.534 277.073 122.149 283.126 129.307 292.471C133.637 298.116 124.038 303.617 119.775 298.05C114.782 291.521 107.414 288.197 99.9915 287.865V369.25C111.534 369.769 122.149 375.823 129.307 385.166C133.637 390.811 124.038 396.312 119.775 390.745C114.782 384.217 107.414 380.892 99.9915 380.56V455.583C99.9915 469.07 110.927 480.005 124.413 480.005H398.51C398.751 479.522 399.216 479.152 399.912 479.133Z" fill="#69247C"/>
<path d="M192.42 244.748H359.541C366.831 244.748 372.796 238.784 372.796 231.494V130.273C372.796 122.983 366.831 117.018 359.541 117.018H192.42C185.13 117.018 179.165 122.983 179.165 130.273V231.494C179.165 238.784 185.13 244.748 192.42 244.748Z" fill="white"/>
<path d="M318.643 317.617C285.569 317.617 258.758 343.309 258.758 375.002C258.758 406.696 285.569 432.389 318.643 432.389C351.716 432.389 378.527 406.696 378.527 375.002C378.527 343.309 351.716 317.617 318.643 317.617Z" fill="white"/>
<path d="M318.643 323.109C288.734 323.109 264.489 346.342 264.489 375.002C264.489 403.663 288.734 426.897 318.643 426.897C348.55 426.897 372.796 403.663 372.796 375.002C372.796 346.342 348.55 323.109 318.643 323.109Z" fill="#FAC67A"/>
<path d="M239.281 291.148L215.724 293.343L200.562 275.18C198.545 272.766 195.477 271.542 192.401 271.855C191.981 271.898 191.561 271.969 191.143 272.07C187.669 272.91 184.971 275.65 184.187 279.139L178.994 302.22L157.036 311.028C153.717 312.36 151.442 315.459 151.168 319.024C150.892 322.589 152.665 326.002 155.74 327.825L176.088 339.896L177.679 363.502C177.92 367.068 180.165 370.191 183.471 371.553C184.932 372.156 186.489 372.369 188.002 372.215C189.913 372.02 191.756 371.24 193.254 369.924L211.022 354.303L233.963 360.083C235.042 360.355 236.139 360.429 237.209 360.319C239.579 360.079 241.814 358.939 243.411 357.065C245.728 354.342 246.3 350.539 244.884 347.255L235.519 325.53L248.105 305.498C250.007 302.471 250.026 298.626 248.153 295.58C246.28 292.534 242.841 290.816 239.281 291.148Z" fill="white"/>
<path d="M231.588 299.584L214.491 301.175C212.79 301.334 211.119 300.646 210.025 299.335L199.02 286.152C196.263 282.85 190.916 284.142 189.971 288.339L186.202 305.093C185.828 306.76 184.657 308.135 183.071 308.771L167.134 315.164C163.141 316.765 162.718 322.25 166.418 324.445L181.186 333.206C182.656 334.077 183.602 335.616 183.717 337.321L184.872 354.454C185.162 358.746 190.247 360.843 193.478 358.002L206.374 346.664C207.657 345.537 209.413 345.111 211.07 345.529L227.721 349.725C231.892 350.776 235.458 346.588 233.755 342.637L226.957 326.868C226.281 325.299 226.42 323.498 227.329 322.052L236.464 307.513C238.753 303.871 235.872 299.185 231.588 299.584Z" fill="#7A9430"/>
<path d="M203.701 209.512C211.747 205.419 219.026 200.007 225.225 193.574C228.171 196.216 231.723 198.283 235.793 199.505C246.727 202.788 257.142 200.389 266.2 195.03C266.668 196.004 267.205 196.952 267.817 197.863C277.204 211.842 295.287 206.543 308.276 198.55C309.179 200.255 310.304 201.886 311.671 203.416C325.813 219.245 351.4 211.907 355.985 191.494C356.452 189.417 353.257 188.53 352.789 190.613C349.402 205.696 332.315 214.04 318.913 205.327C315.166 202.891 312.634 199.967 311.046 196.754C313.146 195.321 315.072 193.847 316.737 192.411C324.503 185.715 331 176.93 334.544 167.269C336.827 161.046 336.399 150.146 327.294 150.381C317.553 150.633 310.473 166.789 307.684 174.182C305.034 181.21 304.48 188.813 306.961 195.563C296.126 202.537 281.536 207.679 272.467 198.381C270.916 196.79 269.741 195.097 268.871 193.335C275.925 188.574 282.049 182.082 286.798 175.25C291.278 168.807 299.753 158.196 297.747 149.634C296.038 142.342 287.798 142.326 282.826 146.317C279.29 149.156 276.622 153.615 274.059 157.278C270.638 162.167 267.47 167.319 265.526 172.994C263.455 179.036 263.035 185.893 265.001 192.009C258.615 195.793 251.416 197.985 243.571 197.52C237.463 197.158 231.906 194.725 227.598 190.991C234.449 183.232 239.8 174.157 243.155 164.215C244.983 158.798 247.721 148.986 241.029 145.57C233.811 141.886 224.35 150.56 220.589 155.929C212.747 167.119 214.556 181.78 222.902 191.233C216.895 197.466 209.846 202.674 202.029 206.651C200.127 207.618 201.802 210.479 203.701 209.512ZM318.158 161.715C320.36 158.515 327.859 148.199 331.803 156.417C334.092 161.189 331.203 167.289 329.065 171.464C325.735 177.97 321.241 183.846 315.845 188.777C314.145 190.331 312.097 191.995 309.818 193.624C306.756 183.344 311.825 170.914 318.158 161.715ZM277.561 158.052C279.527 155.284 281.428 152.204 283.884 149.842C287.794 146.084 295.52 148.145 294.399 154.158C294.12 155.654 293.459 157.318 292.866 158.631C290.098 164.76 286.121 170.769 282.106 176.136C278.073 181.528 273.225 186.499 267.694 190.298C264.558 179.48 271.379 166.753 277.561 158.052ZM220.144 163.877C221.889 158.974 225.257 154.568 229.491 151.557C233.477 148.721 241.143 146.17 241.934 153.248C242.697 160.088 238.274 168.579 235.192 174.351C232.42 179.542 229.074 184.341 225.244 188.694C219.425 182.241 216.874 173.061 220.144 163.877Z" fill="#1A1A1A"/>
<path d="M70.7533 126.51C74.8621 113.355 87.9621 107.29 99.9909 109.289C106.265 110.328 112.241 113.564 116.504 119.12C120.768 124.687 130.367 119.197 126.037 113.553C119.553 105.092 110.252 99.3368 99.9906 97.9343C96.3457 97.4263 92.5679 97.4702 88.7575 98.1439C75.4805 100.486 64.0702 110.736 60.0937 123.571C55.9625 136.925 60.613 152.599 71.3273 161.569C79.4126 168.35 89.9395 170.813 99.9906 169.179V158.045C82.3624 162.22 64.9098 145.21 70.7533 126.51Z" fill="#1A1A1A"/>
<path d="M74.0228 215.969C77.7569 204.006 88.9461 197.909 99.9915 198.406C107.414 198.737 114.782 202.062 119.775 208.59C124.038 214.157 133.637 208.657 129.307 203.012C122.149 193.667 111.534 187.614 99.9915 187.095C97.3736 186.963 94.7115 187.128 92.0276 187.603C78.7511 189.956 67.3403 200.196 63.3642 213.03C59.2331 226.396 63.883 242.07 74.5974 251.039C81.8105 257.081 90.9671 259.687 99.9917 259.025V248.045C83.5665 249.57 68.5446 233.509 74.0228 215.969Z" fill="#1A1A1A"/>
<path d="M74.0228 305.428C77.7569 293.465 88.9461 287.369 99.9915 287.865C107.414 288.197 114.782 291.522 119.775 298.05C124.038 303.617 133.637 298.116 129.307 292.471C122.149 283.127 111.534 277.074 99.9915 276.555C97.3736 276.433 94.7115 276.599 92.0276 277.074C78.7511 279.415 67.3403 289.654 63.3642 302.501C59.2331 315.855 63.883 331.529 74.5974 340.498C81.8105 346.539 90.9671 349.157 99.9917 348.495V337.516C83.5665 339.029 68.5446 322.969 74.0228 305.428Z" fill="#1A1A1A"/>
<path d="M74.0228 398.124C77.7569 386.161 88.9461 380.064 99.9915 380.56C107.414 380.892 114.782 384.217 119.775 390.745C124.038 396.312 133.637 390.811 129.307 385.167C122.149 375.823 111.534 369.769 99.9915 369.25C97.3736 369.117 94.7115 369.283 92.0276 369.758C78.7511 372.11 67.3403 382.35 63.3642 395.186C59.2331 408.551 63.883 424.225 74.5974 433.193C81.8105 439.236 90.9671 441.842 99.9917 441.179V430.2C83.5552 431.714 68.5446 415.665 74.0228 398.124Z" fill="#1A1A1A"/>
<path d="M110.841 212.985C110.778 210.857 107.464 210.848 107.527 212.985C108.01 229.42 109.149 245.812 110.942 262.156C111.172 264.253 114.488 264.277 114.255 262.156C112.463 245.812 111.324 229.42 110.841 212.985Z" fill="#1A1A1A"/>
<path d="M111.274 307.503C111.642 322.751 112.01 337.998 112.379 353.245C112.43 355.374 115.744 355.383 115.692 353.245C115.324 337.998 114.956 322.751 114.587 307.503C114.536 305.375 111.222 305.366 111.274 307.503Z" fill="#1A1A1A"/>
<path d="M195.238 465.096C184.206 464.609 173.175 464.123 162.143 463.637C151.892 463.184 140.6 464.012 130.555 461.731C117.575 458.784 117.537 446.41 116.597 435.427C115.668 424.588 114.974 413.733 114.463 402.868C114.364 400.744 111.05 400.732 111.15 402.868C111.777 416.231 112.584 429.617 113.96 442.928C114.789 450.945 116.351 459.125 124.203 463.091C132.981 467.525 145.034 466.196 154.506 466.614C168.083 467.212 181.661 467.811 195.238 468.411C197.37 468.504 197.365 465.19 195.238 465.096Z" fill="#1A1A1A"/>
<path d="M112.566 130.975C112.605 128.842 109.291 128.842 109.253 130.975C108.998 145.09 109.447 159.179 110.598 173.249C110.771 175.359 114.086 175.378 113.912 173.249C112.76 159.179 112.312 145.09 112.566 130.975Z" fill="#1A1A1A"/>
<path d="M419.12 65.9556C429.832 69.5937 432.17 81.1953 432.554 91.1939C432.89 99.9711 432.783 108.785 432.88 117.568C433.083 135.835 433.286 154.103 433.489 172.37C433.5 173.292 434.126 173.815 434.831 173.939C435.756 174.103 436.816 173.583 436.803 172.37C436.553 149.854 436.303 127.338 436.053 104.823C435.931 93.7884 436.756 79.2919 430.107 70.0986C427.776 66.8759 424.534 64.3001 420.001 62.7601C419.078 62.4468 418.4 62.9443 418.121 63.6405C417.789 64.4711 418.026 65.584 419.12 65.9556Z" fill="#1A1A1A"/>
<path d="M430.67 472.385C439.117 462.888 437.295 448.273 437.15 436.604L435.841 331.832C435.832 331.06 435.388 330.57 434.831 330.358C433.85 329.982 432.511 330.47 432.528 331.832C432.901 361.707 433.274 391.582 433.647 421.457C433.736 428.61 433.83 435.763 433.915 442.916C433.993 449.412 434.34 456.26 432.37 462.539C427.946 476.642 412.652 478.775 399.912 479.133C399.216 479.152 398.751 479.522 398.51 480.005C398.012 481.001 398.474 482.486 399.912 482.447C405.858 482.28 412.324 481.826 418.203 480.005C421.628 478.944 424.855 477.42 427.661 475.211C428.728 474.37 429.737 473.435 430.67 472.385Z" fill="#1A1A1A"/>
<path d="M343.85 391.988C334.566 401.066 320.405 404.373 308.285 399.22C296.149 394.06 288.726 381.56 288.818 368.568C288.833 366.436 285.52 366.433 285.505 368.568C285.403 382.844 293.653 396.635 306.987 402.3C320.333 407.969 335.98 404.317 346.194 394.33C347.721 392.837 345.377 390.495 343.85 391.988Z" fill="#1A1A1A"/>
<path d="M329.163 224.599C293.886 226.887 258.521 225.298 223.601 219.779C221.515 219.45 220.616 222.642 222.72 222.975C257.939 228.541 293.579 230.22 329.163 227.913C331.28 227.776 331.295 224.461 329.163 224.599Z" fill="#1A1A1A"/>
<path d="M252.902 80.6968C292.067 80.3891 331.204 78.8081 370.266 75.9557C372.38 75.8011 372.397 72.4864 370.266 72.6415C331.204 75.4947 292.067 77.0757 252.902 77.3827C250.771 77.3996 250.766 80.7135 252.902 80.6968Z" fill="#1A1A1A"/>
<path d="M167.11 77.4252C169.195 77.8126 170.089 74.6199 167.991 74.23C154.984 71.8137 140.573 70.0932 127.451 72.5652C118.622 74.2282 110.115 81.1085 112.905 90.9226C113.487 92.9703 116.685 92.1002 116.1 90.0417C109.933 68.3449 157.211 75.5863 167.11 77.4252Z" fill="#1A1A1A"/>
<path d="M447.3 280.846C447.336 250.593 447.372 220.339 447.408 190.087C447.411 187.479 443.358 187.475 443.355 190.087C443.318 220.34 443.283 250.593 443.247 280.846C443.244 283.453 447.297 283.457 447.3 280.846Z" fill="#1A1A1A"/>
<path d="M457.187 410.384C457.147 379.596 457.105 348.808 457.064 318.02C457.048 305.43 457.031 292.839 457.014 280.25C457.011 278.118 453.698 278.114 453.7 280.25L453.742 311.269C453.785 344.307 453.83 377.346 453.874 410.384C453.877 412.517 457.191 412.52 457.187 410.384Z" fill="#1A1A1A"/>
<path d="M141.337 450.74C145.055 448.891 148.772 447.043 152.489 445.193C154.825 444.032 152.774 440.535 150.443 441.695C146.726 443.543 143.009 445.391 139.292 447.241C136.956 448.402 139.006 451.899 141.337 450.74Z" fill="#1A1A1A"/>
<path d="M138.673 428.691C137.126 431.166 135.579 433.643 134.031 436.118C132.645 438.336 136.15 440.373 137.531 438.164C139.078 435.689 140.625 433.212 142.173 430.737C143.559 428.519 140.054 426.481 138.673 428.691Z" fill="#1A1A1A"/>
<path d="M474.223 259.119C474.165 230.506 474.106 201.893 474.048 173.28C474.043 170.672 469.989 170.667 469.995 173.28C470.053 201.893 470.111 230.506 470.17 259.119C470.175 261.727 474.228 261.731 474.223 259.119Z" fill="#1A1A1A"/>
<path d="M485.918 364.759C485.918 363.03 484.137 362.453 482.937 363.017C482.328 363.304 481.865 363.879 481.865 364.759C481.863 386.263 481.863 407.767 481.862 429.271C481.861 439.569 482.814 450.671 479.866 460.67C476.891 470.758 467.862 480.397 456.447 477.396C454.696 476.936 453.644 478.675 454.006 480.005C454.165 480.592 454.597 481.101 455.37 481.304C463.573 483.461 471.658 480.211 477.243 473.986C484.098 466.344 485.55 455.767 485.848 445.878C486.659 418.886 485.916 391.764 485.918 364.759Z" fill="#1A1A1A"/>
<path d="M303.843 360.725C306.557 360.725 308.758 358.524 308.758 355.809C308.758 353.094 306.557 350.893 303.843 350.893C301.127 350.893 298.927 353.094 298.927 355.809C298.927 358.524 301.127 360.725 303.843 360.725Z" fill="#1A1A1A"/>
<path d="M345.022 364.759C342.308 364.759 340.106 366.96 340.106 369.675C340.106 372.389 342.308 374.59 345.022 374.59C347.737 374.59 349.938 372.389 349.938 369.675C349.938 366.96 347.737 364.759 345.022 364.759Z" fill="#1A1A1A"/>
</svg>
